<?xml version="1.0" encoding="UTF-8"?>
<svg width="50" height="50" viewBox="0 0 50 50" xmlns="http://www.w3.org/2000/svg">
  <defs>
    <linearGradient id="pythonGradient" x1="0%" y1="0%" x2="100%" y2="100%">
      <stop offset="0%" stop-color="#366A96" />
      <stop offset="100%" stop-color="#3475A8" />
    </linearGradient>
  </defs>
  <g fill="none" fill-rule="evenodd">
    <path d="M25,2 C12.3,2 13.1,8.5 13.1,8.5 L13.1,15.5 L25.2,15.5 L25.2,17.5 L8.2,17.5 C8.2,17.5 2,16.9 2,25 C2,33.1 7.4,32.5 7.4,32.5 L12.4,32.5 L12.4,25.5 C12.4,25.5 12.2,20 18,20 L29.9,20 C29.9,20 35,20.1 35,15 L35,9.5 C35,9.5 36,2 25,2 Z M18.5,7 C19.9,7 21,8.1 21,9.5 C21,10.9 19.9,12 18.5,12 C17.1,12 16,10.9 16,9.5 C16,8.1 17.1,7 18.5,7 Z" fill="url(#pythonGradient)"/>
    <path d="M25,48 C37.7,48 36.9,41.5 36.9,41.5 L36.9,34.5 L24.8,34.5 L24.8,32.5 L41.8,32.5 C41.8,32.5 48,33.1 48,25 C48,16.9 42.6,17.5 42.6,17.5 L37.6,17.5 L37.6,24.5 C37.6,24.5 37.8,30 32,30 L20.1,30 C20.1,30 15,29.9 15,35 L15,40.5 C15,40.5 14,48 25,48 Z M31.5,43 C30.1,43 29,41.9 29,40.5 C29,39.1 30.1,38 31.5,38 C32.9,38 34,39.1 34,40.5 C34,41.9 32.9,43 31.5,43 Z" fill="url(#pythonGradient)"/>
  </g>
</svg>
